<?xml version="1.0" encoding="utf-8"?>
<!-- Generator: Adobe Illustrator 24.0.3, SVG Export Plug-In . SVG Version: 6.00 Build 0)  -->
<svg version="1.1" id="レイヤー_1" xmlns="http://www.w3.org/2000/svg" xmlns:xlink="http://www.w3.org/1999/xlink" x="0px"
	 y="0px" viewBox="0 0 82 82" style="enable-background:new 0 0 82 82;" xml:space="preserve">
<style type="text/css">
	.st0{fill:#585858;fill-opacity:0.9;}
	.st1{fill-rule:evenodd;clip-rule:evenodd;fill:#FFFFFF;}
</style>
<path id="長方形_1184_1_" class="st0" d="M11,1h60c5.5,0,10,4.5,10,10v60c0,5.5-4.5,10-10,10H11C5.5,81,1,76.5,1,71V11
	C1,5.5,5.5,1,11,1z"/>
<path id="icn_arrow_1_" class="st1" d="M39.4,32.8L30,47.2c-0.6,0.9-0.3,2,0.5,2.6c0.3,0.2,0.7,0.3,1,0.3h18.9c1,0,1.9-0.8,1.9-1.9
	c0-0.4-0.1-0.7-0.3-1l-9.4-14.4c-0.6-0.9-1.7-1.1-2.6-0.5C39.8,32.4,39.6,32.6,39.4,32.8z"/>
</svg>
