<?xml version="1.0" encoding="utf-8"?>
<!-- Generator: Adobe Illustrator 24.0.3, SVG Export Plug-In . SVG Version: 6.00 Build 0)  -->
<svg version="1.1" id="icn" xmlns="http://www.w3.org/2000/svg" xmlns:xlink="http://www.w3.org/1999/xlink" x="0px" y="0px"
	 viewBox="0 0 14 14" style="enable-background:new 0 0 14 14;" xml:space="preserve">
<style type="text/css">
	.st0{fill-rule:evenodd;clip-rule:evenodd;fill:#FFFFFF;}
</style>
<path id="長方形_1214" class="st0" d="M6.9,0L6.9,0c3.8,0,6.9,3.1,6.9,6.9v0c0,3.8-3.1,6.9-6.9,6.9h0C3.1,13.7,0,10.7,0,6.9v0
	C0,3.1,3.1,0,6.9,0z M6.8,3C6,3,5.2,3.2,4.5,3.7C4,4.1,3.8,4.7,3.8,5.3c0,0.4,0.2,1.4,1,1.4c0.3,0,0.6-0.2,0.7-0.5c0,0,0,0,0,0
	c0-0.2-0.1-0.3-0.2-0.4C5.3,5.6,5.2,5.5,5.2,5.4c0-1,1.1-1.1,1.7-1.1c0.6-0.1,1.2,0.2,1.3,0.8c0,0.1,0,0.1,0,0.2
	c0,0.4-0.3,0.8-0.7,1C6.6,6.7,6,7.6,5.9,8.6C5.9,9,6.1,9.3,6.5,9.4c0,0,0.1,0,0.1,0c0.4,0,0.7-0.3,0.7-0.7c0,0,0,0,0-0.1
	c0-0.4,0.2-0.8,0.6-1c1.3-1.1,1.6-1.4,1.6-2.3C9.6,3,7.3,3,6.8,3z M6.6,9.8c-0.5,0-1,0.5-1,1s0.5,1,1,1c0.5,0,1-0.4,1-1
	C7.6,10.3,7.2,9.8,6.6,9.8C6.6,9.8,6.6,9.8,6.6,9.8z"/>
</svg>
