<svg xmlns="http://www.w3.org/2000/svg" width="68" height="48" viewBox="0 0 68 48">
  <defs>
    <style>
      .cls-1 {
        fill: #66af54;
      }

      .cls-1, .cls-2 {
        fill-rule: evenodd;
      }

      .cls-2 {
        fill: #040404;
      }
    </style>
  </defs>
  <path id="シェイプ_1" data-name="シェイプ 1" class="cls-1" d="M31.848,16a15.864,15.864,0,0,1-1.2,3.573A14.81,14.81,0,0,1,28.4,22.9a28.834,28.834,0,0,1-3.659,3.279,19.783,19.783,0,0,1-2.717,1.6,17.374,17.374,0,0,1-3.866,1.331,20.644,20.644,0,0,1-5.744.239A11.638,11.638,0,0,1,3.673,25.07,9.955,9.955,0,0,1,1.3,20.448a15.438,15.438,0,0,1,.033-5.281A16.7,16.7,0,0,1,3.954,9.25,17.139,17.139,0,0,1,7.66,5.35a19.037,19.037,0,0,1,3.121-1.882A23.305,23.305,0,0,1,14.5,2.179a19.785,19.785,0,0,1,7.317-.3,12.136,12.136,0,0,1,7.468,3.871,10.77,10.77,0,0,1,2.592,5.495A14.593,14.593,0,0,1,31.848,16ZM16.2,21.286a7.2,7.2,0,0,0,2.358-.833A12.764,12.764,0,0,0,21.1,18.335a5.216,5.216,0,0,0,1.328-2.459,4.826,4.826,0,0,0-1.084-4.861,4.465,4.465,0,0,0-2.608-1.152,8.93,8.93,0,0,0-3.755.529,9.875,9.875,0,0,0-2.9,2.407,8.409,8.409,0,0,0-1.324,2.5,4.818,4.818,0,0,0,1.087,4.862A5.491,5.491,0,0,0,16.2,21.286ZM67.045,16a16.029,16.029,0,0,1-1.2,3.573A14.852,14.852,0,0,1,63.6,22.9a28.747,28.747,0,0,1-3.658,3.279,19.8,19.8,0,0,1-2.717,1.6,17.386,17.386,0,0,1-3.867,1.331,20.647,20.647,0,0,1-5.744.239,11.641,11.641,0,0,1-8.747-4.275,9.972,9.972,0,0,1-2.376-4.622,15.46,15.46,0,0,1,.033-5.281A16.7,16.7,0,0,1,39.152,9.25a17.118,17.118,0,0,1,3.705-3.9,19.047,19.047,0,0,1,3.122-1.882A23.272,23.272,0,0,1,49.7,2.179a19.78,19.78,0,0,1,7.316-.3,12.147,12.147,0,0,1,7.47,3.871,10.784,10.784,0,0,1,2.591,5.495A14.626,14.626,0,0,1,67.045,16ZM51.4,21.286a7.178,7.178,0,0,0,2.358-.833,12.741,12.741,0,0,0,2.539-2.118,5.185,5.185,0,0,0,1.327-2.459,4.821,4.821,0,0,0-1.084-4.861A4.461,4.461,0,0,0,53.93,9.863a8.915,8.915,0,0,0-3.753.529,9.845,9.845,0,0,0-2.9,2.407,8.4,8.4,0,0,0-1.323,2.5,4.818,4.818,0,0,0,1.086,4.862A5.5,5.5,0,0,0,51.4,21.286Zm-3.41,26.023a4.267,4.267,0,0,1-2.623-1.19c-0.008-.006-4.4-3.974-14.162-5.854a31.086,31.086,0,0,0-11.868.362,4.308,4.308,0,0,1-2.139-8.346A39.469,39.469,0,0,1,32.82,31.8c12.265,2.362,17.9,7.527,18.5,8.108A4.308,4.308,0,0,1,47.987,47.309Z"/>
  <path id="シェイプ_1_のコピー" data-name="シェイプ 1 のコピー" class="cls-2" d="M18.528,17.161a3.567,3.567,0,0,0,1.172-.414,6.345,6.345,0,0,0,1.264-1.054,2.618,2.618,0,0,0,.661-1.222,2.4,2.4,0,0,0-.541-2.417,2.231,2.231,0,0,0-1.3-.575,4.447,4.447,0,0,0-1.867.264,4.9,4.9,0,0,0-1.445,1.2,4.225,4.225,0,0,0-.657,1.243,2.407,2.407,0,0,0,.539,2.42A2.743,2.743,0,0,0,18.528,17.161Zm35.12,0a3.589,3.589,0,0,0,1.173-.414,6.472,6.472,0,0,0,1.264-1.054,2.6,2.6,0,0,0,.657-1.222,2.4,2.4,0,0,0-.537-2.417,2.241,2.241,0,0,0-1.3-.575,4.442,4.442,0,0,0-1.867.264,4.88,4.88,0,0,0-1.445,1.2,4.223,4.223,0,0,0-.657,1.243,2.4,2.4,0,0,0,.539,2.42A2.741,2.741,0,0,0,53.648,17.161Z"/>
</svg>
