<?xml version="1.0" encoding="utf-8"?>
<!-- Generator: Adobe Illustrator 24.0.3, SVG Export Plug-In . SVG Version: 6.00 Build 0)  -->
<svg version="1.1" id="レイヤー_1" xmlns="http://www.w3.org/2000/svg" xmlns:xlink="http://www.w3.org/1999/xlink" x="0px"
	 y="0px" viewBox="0 0 100 100" style="enable-background:new 0 0 100 100;" xml:space="preserve">
<style type="text/css">
	.st0{fill:#585858;}
	.st1{fill:#66AF54;}
</style>
<g>
	<path class="st0" d="M35,12c-1.6-0.5-3.3,0.5-3.8,2.1L29,21.9l-5.5-8.6c-0.7-1-1.8-1.6-3-1.4c-1.2,0.2-2.2,1-2.5,2.2l-4.1,14.3
		c-0.5,1.6,0.5,3.3,2.1,3.8c0.3,0.1,0.6,0.1,0.8,0.1c1.3,0,2.6-0.9,2.9-2.2l2.2-7.8l5.5,8.6c0.7,1,1.8,1.6,3,1.4
		c1.2-0.2,2.2-1,2.5-2.2l4.1-14.3C37.5,14.2,36.6,12.5,35,12"/>
	<path class="st0" d="M60,12c-1.6-0.5-3.3,0.5-3.8,2.1l-1.5,5.1h-6.9l1-3.4c0.5-1.6-0.5-3.3-2.1-3.8c-1.6-0.5-3.3,0.5-3.8,2.1
		l-4.1,14.3c-0.5,1.6,0.5,3.3,2.1,3.8c0.3,0.1,0.6,0.1,0.8,0.1c1.3,0,2.6-0.9,2.9-2.2l1.5-5.1h6.9l-1,3.4c-0.5,1.6,0.5,3.3,2.1,3.8
		c0.3,0.1,0.6,0.1,0.8,0.1c1.3,0,2.6-0.9,2.9-2.2l4.1-14.3C62.6,14.2,61.6,12.5,60,12"/>
	<path class="st0" d="M85.9,13.1c-1-1.3-2.9-1.6-4.3-0.6L72.9,19l0.9-3.3c0.5-1.6-0.5-3.3-2.1-3.8c-1.6-0.5-3.3,0.5-3.8,2.1
		l-4.1,14.3c-0.5,1.6,0.5,3.3,2.1,3.8c0.3,0.1,0.6,0.1,0.8,0.1c1.3,0,2.6-0.9,2.9-2.2l1.8-6.1c0,0,0,0,0,0c0,0,0.1,0.1,0.1,0.1
		c0,0,0.1,0.1,0.1,0.1l6.6,7.2c0.6,0.7,1.4,1,2.2,1c0.7,0,1.5-0.3,2.1-0.8c1.2-1.2,1.3-3.1,0.2-4.3l-4.3-4.7l6.7-5.1
		C86.6,16.4,86.9,14.4,85.9,13.1"/>
	<path class="st1" d="M69.6,47.4c-0.3-0.3-1.3-1.1-3-0.7c-0.3,0.1-0.6,0.1-0.9,0.1c-0.1-0.2-0.1-0.3-0.2-0.5c-0.3-0.6-0.8-1-1.4-1.2
		c-1.2-0.4-2.5,0.2-2.9,1.4l-2.6,9.1c-0.2,0.6-0.1,1.2,0.2,1.8c0.3,0.6,0.8,1,1.4,1.2c1.2,0.4,2.5-0.2,2.9-1.4l0,0l0.9-3.2l0.8-2.7
		c0.2-0.5,0.5-0.8,0.8-0.9c0.2-0.1,0.3,0,0.5,0c0.2,0.1,0.3,0.2,0.5,0.3c0.1,0.1,0.4,0.3,0.7,0.4c0.3,0.1,0.7,0.2,1,0.2
		c0.6,0,1.2-0.3,1.6-0.8c0.5-0.6,0.6-1.5,0.4-2.3C70.1,48,69.9,47.7,69.6,47.4"/>
	<path class="st1" d="M42.5,38.9c-0.3-0.4-0.7-0.8-1.2-1c-0.5-0.2-1.3-0.2-1.9-0.2c-0.6,0.1-1.3,0.1-2.3,0.8c-0.9,0.6-1.7,2-2.4,3.5
		c-0.7,1.5-1.1,3-1.2,3.2h-0.4h-1.5c-0.5,0-1,0.2-1.4,0.6c-0.4,0.4-0.5,0.9-0.5,1.4c0.1,1.1,1,2,2.1,2h0.1l-2,6.5
		c-0.2,0.6-0.2,1.3-0.1,1.7c0.2,0.7,0.6,1,1.3,1.2c0.8,0.3,1.8,0.1,2.2-0.2c0.2-0.1,0.5-0.5,0.8-1.1c0.2-0.6,2-6.6,2.6-8.2l1.7,0
		c0.5,0,1-0.2,1.4-0.6c0.4-0.4,0.5-0.9,0.5-1.4c-0.1-1-0.9-1.9-1.9-2c0.3-0.6,0.4-1.3,1.1-2.6c0.4-0.8,1.2-0.8,1.8-1
		c0.8-0.2,1.1-0.6,1.3-1.2C42.9,39.9,42.8,39.3,42.5,38.9"/>
	<path class="st1" d="M56.5,52.2c-0.1,0.4-0.3,1.2-0.6,1.8c-0.2,0.4-0.7,1.2-1.1,1.7c-0.5,0.5-1.2,1.2-1.8,1.6
		c-0.5,0.4-1,0.6-1.4,0.8c-0.3,0.2-1.2,0.5-1.9,0.7c-0.9,0.2-1.8,0.2-2.9,0.1c-1.9-0.2-3.1-0.7-4.4-2.1c-0.7-0.8-1.1-1.6-1.2-2.3
		c-0.1-0.7-0.2-1.9,0-2.6c0.2-0.8,0.6-1.9,1.3-2.9c0.8-1.1,1.5-1.6,1.8-1.9c0.5-0.4,1.2-0.8,1.6-0.9c0.4-0.2,1.2-0.5,1.9-0.6
		c1-0.2,2.1-0.4,3.7-0.2c1.5,0.2,2.9,0.9,3.7,1.9c0.9,1,1.1,1.9,1.3,2.7C56.7,50.7,56.6,51.5,56.5,52.2 M48.7,54.8
		c0.4-0.1,0.8-0.2,1.2-0.4c0.4-0.2,0.9-0.7,1.3-1.1c0.4-0.4,0.5-0.7,0.7-1.2c0.3-1.2-0.1-2-0.5-2.4c-0.2-0.2-0.7-0.5-1.3-0.6
		c-0.6-0.1-1.5,0.1-1.9,0.3c-0.4,0.2-1.2,0.8-1.5,1.2c-0.3,0.4-0.5,0.7-0.7,1.2c-0.3,1.2,0.1,2,0.5,2.4C46.9,54.7,47.9,55,48.7,54.8
		"/>
	<path d="M60.7,79.7c0.2,0,0.4-0.1,0.6-0.2c0.2-0.1,0.5-0.3,0.6-0.5c0.2-0.2,0.3-0.4,0.3-0.6c0.2-0.6-0.1-1-0.3-1.2
		c-0.1-0.1-0.4-0.3-0.6-0.3c-0.3,0-0.7,0-0.9,0.1c-0.2,0.1-0.6,0.4-0.7,0.6c-0.1,0.2-0.3,0.4-0.3,0.6c-0.2,0.6,0.1,1,0.3,1.2
		C59.8,79.6,60.3,79.8,60.7,79.7"/>
	<path d="M78.2,79.7c0.2,0,0.4-0.1,0.6-0.2c0.2-0.1,0.5-0.3,0.6-0.5c0.2-0.2,0.3-0.4,0.3-0.6c0.2-0.6-0.1-1-0.3-1.2
		c-0.1-0.1-0.4-0.3-0.6-0.3c-0.3,0-0.7,0-0.9,0.1c-0.2,0.1-0.6,0.4-0.7,0.6c-0.1,0.2-0.3,0.4-0.3,0.6c-0.2,0.6,0.1,1,0.3,1.2
		C77.4,79.6,77.9,79.8,78.2,79.7"/>
	<path class="st1" d="M95.3,80.5l-0.9,3.2l0,0c-0.3,1.2-1.6,1.9-2.9,1.4c-0.6-0.2-1.1-0.6-1.4-1.2c-0.3-0.6-0.4-1.2-0.2-1.8
		l4.7-16.7c0.3-1.2,1.6-1.9,2.9-1.4c0.6,0.2,1.1,0.6,1.4,1.2c0.3,0.6,0.4,1.2,0.2,1.8l-2.6,9.3L95.3,80.5z"/>
	<path class="st1" d="M51.4,75.5c-0.2-0.9-0.7-1.8-1.3-2.5c-0.5-0.6-2-1.3-4.2-1.3c-1.3,0-2,0.3-2.2,0.4l1.3-4.9
		c0.2-0.6,0.1-1.2-0.2-1.8c-0.3-0.6-0.8-1-1.4-1.2c-1.2-0.4-2.7,0.1-3,1.3l-4.8,16.6c-0.2,0.6,0,1.3,0.3,1.9c0.3,0.6,0.8,1,1.4,1.2
		c1.2,0.4,2.5-0.2,2.9-1.4l0,0c0,0,2.1-6.4,2.4-7.3c0.3-0.9,1.3-1.1,2-1.1c0.8,0,1.3,0.3,1.5,0.5c0.2,0.2,0.4,0.6,0.4,0.9
		c0,0.3-0.1,0.8-0.4,1.7c-0.4,1.5-0.9,3.4-1,3.8c-0.1,0.5-0.1,1.2,0.2,1.8c0.3,0.6,0.8,1,1.4,1.2c1.2,0.4,2.6-0.2,3-1.4
		c0,0,1.5-4.3,1.7-5.3C51.5,77.4,51.6,76.4,51.4,75.5"/>
	<path class="st1" d="M31.3,71.6l-0.3,0c0,0-0.9-0.1-1.8,0c-0.9,0.1-2.1,0.2-3.3,0.6c-1,0.4-2.2,1-2.9,1.5c-0.7,0.6-1.1,1.1-1.4,1.6
		c-0.3,0.4-0.6,0.9-0.7,1.2c-0.2,0.5-0.4,1.1-0.4,1.8c0,0.7,0.1,2,0.6,3c0.4,0.8,1.1,1.7,1.8,2.3c1.9,1.6,3.4,1.6,4.1,1.7
		c0.7,0.1,2.1,0,2.1,0c0.6,0,1.2-0.2,1.6-0.7c0.4-0.4,0.6-1,0.6-1.7c-0.1-1.3-1.2-2.2-2.5-2.2l-0.3,0c0,0-0.6,0-1.1-0.1
		c-0.5-0.1-1.1-0.3-1.5-0.7c-0.3-0.3-0.8-0.9-0.7-1.7c0.1-0.9,1.1-1.6,1.9-1.8c0.9-0.3,1.9-0.4,3-0.4c0,0,0,0,0,0l1.5,0
		c0.6,0,1.2-0.2,1.6-0.7c0.4-0.4,0.6-0.9,0.6-1.5C33.7,72.6,32.6,71.6,31.3,71.6"/>
	<path class="st1" d="M18.6,66.2C18.2,65,17.5,65,16.7,65h-3.6c-1.1,0-2.7,0-4,0.3c-2,0.5-3.5,1.5-4.6,3c-1.5,2.1-1.2,4.1-0.8,5.1
		C4.4,75,5.7,76.1,7,76.5c1.3,0.4,2.1,0.5,3,0.5c0.6,0,1.3,0.2,1.6,0.7c0.3,0.5,0.4,1.3-0.2,1.9c-0.5,0.6-1.3,1-3,1
		c-0.9,0-3.5,0-5.1,0c-1.1,0-1.7,0.4-2.2,1.1c-0.3,0.5-0.3,1.8,0.3,2.5c0.6,0.7,1.6,1,3.1,1c0,0,2.2,0,3.5,0c1.3,0,4-0.4,6-1.6
		c1.7-1,2.6-2.3,3.1-3.4c0.4-1,0.8-2.2,0.4-3.9c-0.4-1.5-1.2-2.5-2-2.9c-1.3-0.8-2.3-1.1-4.3-1.1c-1.4,0-1.8-0.9-1.9-1.5
		c0-0.4,0.1-0.9,0.5-1.2c0.5-0.4,1-0.5,1.6-0.6c0.6,0,1.2,0,2.1,0.1c0.7,0.1,1.6,0.2,2.6,0c1-0.2,1.7-0.6,2.1-1.1
		C18.5,67.6,18.9,67.1,18.6,66.2"/>
	<path class="st1" d="M69.2,78.8c-0.1,0.4-0.3,1.2-0.6,1.8c-0.2,0.4-0.7,1.2-1.1,1.7c-0.5,0.5-1.2,1.2-1.8,1.6
		c-0.5,0.4-1,0.6-1.4,0.8c-0.3,0.2-1.2,0.5-1.9,0.7c-0.9,0.2-1.8,0.2-2.9,0.1c-1.9-0.2-3.1-0.7-4.4-2.1c-0.7-0.8-1.1-1.6-1.2-2.3
		c-0.1-0.7-0.2-1.9,0-2.6c0.2-0.8,0.6-1.9,1.3-2.9c0.8-1.1,1.5-1.6,1.9-1.9c0.5-0.4,1.2-0.8,1.6-0.9c0.4-0.2,1.2-0.5,1.9-0.6
		c1-0.2,2.1-0.4,3.7-0.2c1.5,0.2,2.9,0.9,3.7,1.9c0.9,1,1.1,1.9,1.3,2.7C69.4,77.2,69.3,78.1,69.2,78.8 M61.4,81.4
		c0.4-0.1,0.8-0.2,1.2-0.4c0.4-0.2,0.9-0.7,1.3-1.1c0.4-0.4,0.5-0.7,0.7-1.2c0.3-1.2-0.1-2-0.5-2.4c-0.2-0.2-0.7-0.5-1.3-0.6
		c-0.6-0.1-1.5,0.1-1.9,0.3c-0.4,0.2-1.2,0.8-1.4,1.2c-0.3,0.4-0.5,0.7-0.7,1.2c-0.3,1.2,0.1,2,0.5,2.4
		C59.6,81.2,60.6,81.5,61.4,81.4"/>
	<path class="st1" d="M86.8,78.8c-0.1,0.4-0.3,1.2-0.6,1.8c-0.2,0.4-0.7,1.2-1.1,1.7c-0.5,0.5-1.2,1.2-1.8,1.6
		c-0.5,0.4-1,0.6-1.4,0.8c-0.3,0.2-1.2,0.5-1.9,0.7c-0.9,0.2-1.8,0.2-2.9,0.1c-1.9-0.2-3.1-0.7-4.4-2.1c-0.7-0.8-1.1-1.6-1.2-2.3
		c-0.1-0.7-0.2-1.9,0-2.6c0.2-0.8,0.6-1.9,1.3-2.9c0.8-1.1,1.5-1.6,1.9-1.9c0.5-0.4,1.2-0.8,1.6-0.9c0.4-0.2,1.2-0.5,1.9-0.6
		c1-0.2,2.1-0.4,3.7-0.2c1.5,0.2,2.9,0.9,3.7,1.9c0.9,1,1.1,1.9,1.3,2.7C87,77.2,86.9,78.1,86.8,78.8 M79,81.4
		c0.4-0.1,0.8-0.2,1.2-0.4c0.4-0.2,0.9-0.7,1.3-1.1c0.4-0.4,0.5-0.7,0.7-1.2c0.3-1.2-0.1-2-0.5-2.4c-0.2-0.2-0.7-0.5-1.3-0.6
		c-0.6-0.1-1.5,0.1-1.9,0.3c-0.4,0.2-1.2,0.8-1.5,1.2c-0.3,0.4-0.5,0.7-0.7,1.2c-0.3,1.2,0.1,2,0.5,2.4C77.2,81.2,78.2,81.5,79,81.4
		"/>
</g>
</svg>
